<svg xmlns="http://www.w3.org/2000/svg" viewBox="0 0 1440 320"><path fill="#282c34" fill-opacity="1" d="M0,192L30,186.7C60,181,120,171,180,149.3C240,128,300,96,360,106.7C420,117,480,171,540,186.7C600,203,660,181,720,154.7C780,128,840,96,900,122.7C960,149,1020,235,1080,245.3C1140,256,1200,192,1260,186.7C1320,181,1380,235,1410,261.3L1440,288L1440,0L1410,0C1380,0,1320,0,1260,0C1200,0,1140,0,1080,0C1020,0,960,0,900,0C840,0,780,0,720,0C660,0,600,0,540,0C480,0,420,0,360,0C300,0,240,0,180,0C120,0,60,0,30,0L0,0Z"></path></svg>